<?xml version="1.0" encoding="UTF-8"?>
<svg version="1.1" xmlns="http://www.w3.org/2000/svg" width="1024" height="1024">
<path d="M0 0 C1.82660498 -0.00159131 3.65320937 -0.00405809 5.47981215 -0.00731641 C10.4665787 -0.01369098 15.45326326 -0.00769143 20.44002438 0.00044787 C25.83448978 0.00705818 31.2289465 0.00206837 36.62341309 -0.00143433 C47.19415285 -0.00646909 57.76486123 -0.00083901 68.3355971 0.00841597 C80.71236411 0.01885563 93.08912453 0.01872809 105.46589512 0.01824339 C128.29784442 0.01772761 151.1297793 0.02775508 173.96172299 0.04274584 C194.6414362 0.05627433 215.32113579 0.06258151 236.00085449 0.06193542 C237.96115297 0.06187549 237.96115297 0.06187549 239.96105343 0.06181435 C241.26595948 0.06177399 242.57086554 0.06173364 243.9153142 0.06169206 C268.37317967 0.060994 292.83103988 0.06695096 317.28890362 0.07584528 C324.64034323 0.07839729 331.9917819 0.07978151 339.34322193 0.08017512 C430.62057734 0.08530437 430.62057734 0.08530437 472.08599031 0.60559438 C474.28743121 0.63223344 476.48888456 0.6557737 478.69036961 0.67843974 C482.67620355 0.72030931 486.6616252 0.778352 490.6472168 0.83908081 C491.77153453 0.85010326 492.89585226 0.86112571 494.05424023 0.87248218 C505.53003961 1.08070646 516.74059192 2.61400393 527.75280762 5.87223816 C528.63605713 6.13021179 529.51930664 6.38818542 530.42932129 6.65397644 C561.02225054 15.86364078 592.48759567 31.69980935 614.62780762 55.24723816 C614.62780762 55.90723816 614.62780762 56.56723816 614.62780762 57.24723816 C615.28780762 57.24723816 615.94780762 57.24723816 616.62780762 57.24723816 C621.25723771 62.10024869 624.89344741 68.00316434 628.62780762 73.55973816 C629.01839355 74.13860779 629.40897949 74.71747742 629.81140137 75.31388855 C636.45320953 85.32968082 641.88363862 95.45380564 646.19030762 106.68473816 C646.66137939 107.90394958 647.13245117 109.12316101 647.61779785 110.37931824 C650.38396822 117.65929118 652.98738813 124.96387494 655.19030762 132.43473816 C655.41726318 133.18489197 655.64421875 133.93504578 655.87805176 134.70793152 C659.92342667 149.31369871 659.91991735 164.57235426 659.8817749 179.6026001 C659.88408438 181.6073696 659.88726414 183.61213825 659.89122939 185.61690515 C659.89952026 191.08070797 659.89547816 196.54444025 659.88925695 202.0082432 C659.88470949 207.9193185 659.89172785 213.83038214 659.8972168 219.74145508 C659.90609051 231.30768885 659.90419708 242.8738966 659.89839152 254.44013137 C659.89379215 263.85306892 659.89321436 273.26599957 659.89543915 282.67893791 C659.8956683 283.68502491 659.8956683 283.68502491 659.89590209 284.71143689 C659.89652487 287.43483517 659.89716168 290.15823344 659.89782162 292.88163171 C659.90393245 318.4048575 659.89840598 343.92806917 659.88762782 369.45129277 C659.87815376 392.0578427 659.87897299 414.66437008 659.8885498 437.2709198 C659.89929804 462.72719001 659.9034827 488.18344773 659.89732528 513.6397199 C659.89668396 516.36258057 659.89605827 519.08544125 659.89543915 521.80830193 C659.89528099 522.47863132 659.89512284 523.14896071 659.89495989 523.83960311 C659.89269934 533.89569746 659.89533162 543.95178232 659.90039825 554.00787544 C659.90604723 565.47118595 659.90440782 576.93446912 659.89383677 588.39777655 C659.88863116 594.23261704 659.88643417 600.06741219 659.89313507 605.9022522 C659.96207986 671.45926408 656.48580344 730.39847712 608.62780762 780.24723816 C607.94114014 780.98055359 607.94114014 780.98055359 607.24060059 781.72868347 C596.24208573 793.44363187 583.50754012 804.74804465 568.62780762 811.24723816 C567.96780762 811.24723816 567.30780762 811.24723816 566.62780762 811.24723816 C566.29780762 811.90723816 565.96780762 812.56723816 565.62780762 813.24723816 C563.64891801 813.9741772 561.64826204 814.64540067 559.62780762 815.24723816 C559.62780762 815.90723816 559.62780762 816.56723816 559.62780762 817.24723816 C558.45991699 817.32973816 557.29202637 817.41223816 556.08874512 817.49723816 C548.28988595 818.36343918 540.75611339 820.73606298 533.20788574 822.8087616 C525.68409827 824.86497441 518.41706011 826.66438592 510.58239746 827.07145691 C508.62433305 827.03706999 508.62433305 827.03706999 507.62780762 828.24723816 C504.84259481 828.34898497 502.08204758 828.38452979 499.29624367 828.37866592 C498.40763248 828.38071856 497.51902129 828.38277119 496.60348248 828.38488603 C493.58648174 828.39059977 490.56952601 828.38909341 487.55252075 828.38768005 C485.38317893 828.39026124 483.21383758 828.3932737 481.04449689 828.39668345 C475.052003 828.40478665 469.05952105 828.40654488 463.06702232 828.40728092 C456.61535187 828.4091259 450.16368771 828.41667073 443.71202087 828.42341614 C428.84774462 828.43800754 413.98346962 828.44353085 399.11918748 828.44810808 C391.77181574 828.45044274 384.42444477 828.4540454 377.07707363 828.45780346 C351.92171734 828.47064553 326.76636148 828.48136088 301.61100197 828.48480606 C300.03064687 828.48502769 298.45029177 828.48524948 296.86993667 828.48547141 C295.28574913 828.48569205 293.7015616 828.48591254 292.11737406 828.48613286 C288.93921129 828.48657541 285.76104852 828.48702253 282.58288574 828.48747253 C281.79488127 828.48758193 281.00687679 828.48769132 280.19499339 828.48780402 C254.67701194 828.49142999 229.15905898 828.50732924 203.64108843 828.5306629 C176.65847471 828.5552906 149.67587725 828.56898041 122.69325197 828.57017398 C119.72744075 828.57034543 116.76162954 828.57056085 113.79581833 828.57080841 C113.06555926 828.57086418 112.3353002 828.57091995 111.58291207 828.57097741 C99.85500173 828.57212577 88.1271207 828.58313018 76.39922024 828.59769547 C64.59313581 828.61210335 52.7870919 828.61502219 40.98100103 828.60725549 C34.59091273 828.6033577 28.20092247 828.60423578 21.81084633 828.61831284 C15.95016232 828.63110493 10.08964951 828.62980774 4.22896557 828.61772212 C2.11897929 828.61577421 0.00898066 828.61880122 -2.10098831 828.62756649 C-31.42140043 828.7415665 -55.06057646 822.05790918 -81.37219238 809.24723816 C-82.45242676 808.72468445 -83.53266113 808.20213074 -84.64562988 807.66374207 C-89.68407328 805.19332447 -94.51093877 802.77711468 -98.99719238 799.37223816 C-99.89437988 798.69419128 -100.79156738 798.01614441 -101.71594238 797.31755066 C-102.59250488 796.63434753 -103.46906738 795.95114441 -104.37219238 795.24723816 C-105.65609863 794.25337097 -105.65609863 794.25337097 -106.96594238 793.23942566 C-115.51350776 786.51217513 -123.38097165 779.58887578 -130.37219238 771.24723816 C-131.65803223 769.77577332 -131.65803223 769.77577332 -132.96984863 768.27458191 C-139.05142778 761.28944177 -144.52244705 754.16302527 -149.37219238 746.24723816 C-149.91722412 745.36044373 -149.91722412 745.36044373 -150.4732666 744.45573425 C-156.72611224 734.16587015 -161.40557151 723.60320825 -165.37219238 712.24723816 C-165.73570801 711.21832458 -165.73570801 711.21832458 -166.10656738 710.16862488 C-172.19695 692.67992203 -173.78398408 676.04714978 -173.92280579 657.61734009 C-173.92878936 656.88071341 -173.93477293 656.14408673 -173.94093782 655.38513803 C-173.9536325 653.81992973 -173.96612401 652.25471977 -173.97842431 650.68950832 C-174.00926092 646.77946079 -174.04197949 642.86942909 -174.07463074 638.95939636 C-174.08135136 638.1539716 -174.08807199 637.34854684 -174.09499627 636.51871526 C-174.23087582 620.29430263 -174.38094941 604.07025252 -174.56937122 587.8463583 C-175.5029934 507.36692331 -175.39993744 426.89993375 -175.12107199 346.41703003 C-175.07139003 332.02178865 -175.03274824 317.62654031 -174.99882808 303.23125392 C-174.96326006 288.17798813 -174.92051365 273.12475816 -174.87007266 258.07153463 C-174.84222426 249.7255915 -174.81697946 241.37966312 -174.79941368 233.03369141 C-174.78454179 226.00379638 -174.7627822 218.97396179 -174.73253854 211.94411546 C-174.71739622 208.38372405 -174.70507091 204.82339332 -174.701437 201.26296997 C-174.68179726 187.82084007 -174.48273363 174.44419374 -173.48408508 161.03471375 C-173.40794595 160.00037909 -173.33180683 158.96604444 -173.25336045 157.90036631 C-171.27165652 134.11346802 -162.7021489 111.10671617 -151.37219238 90.24723816 C-151.02043945 89.58530457 -150.66868652 88.92337097 -150.30627441 88.24137878 C-142.65990794 73.87651953 -133.55014317 60.90026604 -122.71496582 48.75700378 C-121.46099616 47.3470859 -120.23196803 45.91509486 -119.00500488 44.48161316 C-106.54093709 30.86272758 -88.96340175 21.90921851 -72.37219238 14.24723816 C-71.17529785 13.65749207 -71.17529785 13.65749207 -69.95422363 13.05583191 C-58.21911924 7.44147615 -45.14640324 4.33264057 -32.37219238 2.24723816 C-31.4430378 2.0839534 -30.51388322 1.92066864 -29.55657244 1.75243586 C-19.6499755 0.15129803 -10.01157153 -0.03187449 0 0 Z " fill="#FE6500" transform="translate(269.3721923828125,97.75276184082031)"/>
<path d="M0 0 C1.59074231 0.69920579 3.18322161 1.39447206 4.77734375 2.0859375 C5.59992676 2.45138672 6.42250977 2.81683594 7.27001953 3.19335938 C53.9570431 23.8747793 102.219578 40.45611546 151.61340332 53.37225342 C153.91104855 53.9766031 156.20548764 54.59168259 158.49902344 55.21142578 C183.39915016 61.93097787 208.61450365 66.8100701 233.97125244 71.47846985 C238.31752769 72.2831999 242.65811514 73.10948019 246.98364258 74.01977539 C247.68209793 74.16645157 248.38055328 74.31312775 249.10017395 74.46424866 C253.88423931 75.81335609 257.8523916 79.15736501 260.9458313 82.97567749 C263.25840863 87.4165249 262.63947295 92.60505571 262.55859375 97.48828125 C262.55645622 99.34043747 262.55645622 99.34043747 262.55427551 101.23001099 C262.54378203 104.56725039 262.51032028 107.90256866 262.46394348 111.23939133 C262.42854752 114.01435367 262.41011199 116.78933613 262.39098549 119.56445026 C262.0242083 170.7360203 258.54136492 219.854467 243 269 C242.63922363 270.15193848 242.27844727 271.30387695 241.90673828 272.49072266 C221.39474483 337.50183955 188.65916092 401.96430745 143 453 C142.175 453.92425781 141.35 454.84851563 140.5 455.80078125 C139.00535322 457.46458569 137.50690865 459.12498975 136.00390625 460.78125 C134.18688018 462.79308393 132.40055608 464.82660434 130.625 466.875 C119.18442163 479.9649066 107.28224261 492.75271795 94 504 C92.32999185 505.47539303 90.66338176 506.95464029 89 508.4375 C88.236875 509.11683594 87.47375 509.79617188 86.6875 510.49609375 C86.130625 510.99238281 85.57375 511.48867188 85 512 C83 509 83 509 83 505 C82.34 505 81.68 505 81 505 C79.92868535 503.47167024 78.91814 501.90053405 77.9375 500.3125 C74.4075243 495.06221968 70.75328387 492.47873908 65 490 C65 489.34 65 488.68 65 488 C50.5227375 484.92129101 33.05206083 481.54508359 19 488 C17.97550146 488.97488602 16.97223792 489.97298811 16 491 C15.0925 491.37125 14.185 491.7425 13.25 492.125 C9.21551995 494.45258464 7.20395836 497.29719309 4.515625 501.0390625 C3 503 3 503 1 504 C0.34 507.3 -0.32 510.6 -1 514 C26.06 514 53.12 514 81 514 C72.63443986 522.36556014 63.70981504 529.28872982 54 536 C53.40799805 536.4115332 52.81599609 536.82306641 52.20605469 537.24707031 C41.81801019 544.43703624 31.0037178 550.80307589 20 557 C19.19715576 557.45544189 18.39431152 557.91088379 17.56713867 558.38012695 C16.77799072 558.82445068 15.98884277 559.26877441 15.17578125 559.7265625 C14.46848877 560.12568848 13.76119629 560.52481445 13.0324707 560.93603516 C10.44582711 562.29010036 7.81978488 563.30564314 5.05859375 564.2421875 C2.95817519 564.96852801 2.95817519 564.96852801 0.91015625 566.0703125 C-8.09373508 570.47221493 -19.4485319 570.8945022 -29.00390625 567.89453125 C-32.79515429 566.5070958 -36.38079476 564.78584416 -40 563 C-41.13695312 562.47019531 -42.27390625 561.94039062 -43.4453125 561.39453125 C-68.18298392 549.53284598 -93.54547423 533.45452577 -113 514 C-87.26 514 -61.52 514 -35 514 C-35.66 510.7 -36.32 507.4 -37 504 C-37.66 504 -38.32 504 -39 504 C-39.90567942 502.63702671 -40.74934892 501.23261855 -41.5625 499.8125 C-44.80954209 494.70425017 -48.54404466 492.4127447 -54 490 C-54 489.34 -54 488.68 -54 488 C-70.44227133 483.92580887 -85.55772867 483.92580887 -102 488 C-102 488.66 -102 489.32 -102 490 C-102.59167969 490.27972656 -103.18335938 490.55945313 -103.79296875 490.84765625 C-109.6266106 493.80730162 -112.46614934 496.53859444 -116 502 C-116.66 502 -117.32 502 -118 502 C-118.66 503.98 -119.32 505.96 -120 508 C-125.61611172 504.0003588 -130.6088401 499.68796857 -135.46484375 494.80078125 C-136.14245255 494.12508591 -136.82006134 493.44939056 -137.51820374 492.7532196 C-138.94159494 491.33118043 -140.3624997 489.90664845 -141.78100586 488.47973633 C-143.92149934 486.32858037 -146.07239539 484.18825035 -148.22460938 482.04882812 C-155.61267282 474.66788223 -162.55349601 467.22503483 -169 459 C-169.92239797 457.90934208 -170.85209355 456.82475884 -171.79296875 455.75 C-195.70946402 428.28309516 -216.33820615 396.08342917 -231.94873047 363.18603516 C-232.9669898 361.0686422 -234.02224629 358.97558296 -235.09765625 356.88671875 C-239.56453291 348.20325537 -243.46591667 339.3668793 -247.1875 330.33984375 C-248.59691549 326.92961385 -250.10268089 323.5830727 -251.6875 320.25 C-254.14939058 314.93793408 -255.92760735 309.44323354 -257.69140625 303.87109375 C-258.63701825 300.95879175 -259.74046775 298.14360432 -260.90625 295.3125 C-263.26228592 289.4982246 -265.11737897 283.56278623 -266.9375 277.5625 C-267.2873999 276.41144775 -267.6372998 275.26039551 -267.99780273 274.07446289 C-277.37507884 242.98366963 -283.94365367 211.21391778 -288 179 C-288.16516113 177.7015918 -288.33032227 176.40318359 -288.50048828 175.06542969 C-290.95917517 154.66875311 -291.32870735 134.28079651 -291.4375 113.75 C-291.44971588 112.47560059 -291.46193176 111.20120117 -291.47451782 109.88818359 C-291.50409996 106.23238579 -291.50481712 102.57776017 -291.49609375 98.921875 C-291.5071817 97.82228455 -291.51826965 96.72269409 -291.5296936 95.58978271 C-291.4660974 88.50376438 -290.64799429 83.84998889 -285.6235199 78.54730225 C-280.27088236 73.69015716 -273.95717522 72.68028906 -267.05078125 71.484375 C-265.47954096 71.20363298 -263.90833464 70.92270076 -262.3371582 70.64160156 C-261.5183316 70.49662231 -260.699505 70.35164307 -259.85586548 70.20227051 C-205.66580178 60.56599612 -152.93622779 45.94268852 -101.04681396 27.71594238 C-98.97615828 26.99166055 -96.9026889 26.27594673 -94.82861328 25.56152344 C-85.17390856 22.21975223 -75.67427821 18.56871962 -66.21652222 14.70584106 C-63.81114822 13.72393484 -61.4029103 12.74929373 -58.99438477 11.77514648 C-51.9107207 8.89960756 -44.86133351 5.98492122 -37.91015625 2.80078125 C-36.36835693 2.09840332 -36.36835693 2.09840332 -34.79541016 1.38183594 C-32.97159411 0.53988293 -31.15629392 -0.32094481 -29.35302734 -1.20605469 C-19.03941626 -5.97756394 -10.0180028 -4.81139766 0 0 Z " fill="#FDFCFC" transform="translate(528,233)"/>
<path d="M0 0 C0.11674934 11.38901702 0.20514369 22.77788762 0.25906086 34.1673851 C0.28496126 39.45816193 0.3199939 44.74852417 0.37719727 50.0390625 C0.43222474 55.16144022 0.46156678 60.28342364 0.47438622 65.40607452 C0.48350102 67.34336795 0.50129233 69.28064412 0.52865028 71.21776581 C0.73685573 86.59631221 -0.46663794 102.24224935 -8 116 C-8.66 116 -9.32 116 -10 116 C-10.10699219 116.70898438 -10.21398437 117.41796875 -10.32421875 118.1484375 C-11.07597688 121.32059607 -12.25598953 123.76417316 -13.8125 126.625 C-14.31394531 127.56601562 -14.81539062 128.50703125 -15.33203125 129.4765625 C-17.01094061 132.01655183 -18.52992601 133.28324733 -21 135 C-21.433125 135.763125 -21.86625 136.52625 -22.3125 137.3125 C-24.26225661 140.41766794 -26.49441873 142.23178172 -29.3125 144.52734375 C-31.1782747 146.05429143 -31.1782747 146.05429143 -32.9375 148.5625 C-35.32830663 151.38799875 -37.80262387 152.8866373 -41 154.69140625 C-43.10032966 155.95437489 -43.10032966 155.95437489 -44.8359375 157.94921875 C-47.5290456 160.50135188 -50.24455024 161.7390992 -53.625 163.25 C-54.77226563 163.77078125 -55.91953125 164.2915625 -57.1015625 164.828125 C-60 166 -60 166 -62 166 C-62 166.66 -62 167.32 -62 168 C-64.51954288 168.9618423 -67.04053637 169.91954241 -69.5625 170.875 C-70.26697266 171.14441406 -70.97144531 171.41382813 -71.69726562 171.69140625 C-78.0992354 174.11058377 -84.05537002 176.33876244 -91 176 C-91 176.66 -91 177.32 -91 178 C-99.74782868 180.0939459 -108.24291941 180.30989456 -117.17919922 180.26074219 C-119.49603439 180.25001836 -121.81209446 180.2606943 -124.12890625 180.2734375 C-132.29095316 180.279986 -140.01426074 179.91152646 -148 178 C-148 177.34 -148 176.68 -148 176 C-149.27875 175.95875 -150.5575 175.9175 -151.875 175.875 C-160.58017468 175.04713036 -170.16499648 171.91750176 -178 168 C-178 167.34 -178 166.68 -178 166 C-178.70640625 165.89429688 -179.4128125 165.78859375 -180.140625 165.6796875 C-183.35555787 164.91548214 -185.84910239 163.70089303 -188.75 162.125 C-189.71421875 161.61195313 -190.6784375 161.09890625 -191.671875 160.5703125 C-194 159 -194 159 -195 156 C-195.70125 155.731875 -196.4025 155.46375 -197.125 155.1875 C-201.03314036 153.57326811 -204.10101161 151.07443149 -207 148 C-207 147.34 -207 146.68 -207 146 C-207.721875 145.79375 -208.44375 145.5875 -209.1875 145.375 C-212.97218384 143.52471012 -214.52258653 141.39759562 -217 138 C-217 137.34 -217 136.68 -217 136 C-217.88945312 135.6596875 -217.88945312 135.6596875 -218.796875 135.3125 C-221.61741362 133.63217912 -222.62057577 131.83091887 -224.25 129 C-224.77078125 128.113125 -225.2915625 127.22625 -225.828125 126.3125 C-227 124 -227 124 -227 122 C-227.66 122 -228.32 122 -229 122 C-237.52576602 104.41225627 -237.52576602 104.41225627 -237 96 C-237.66 96 -238.32 96 -239 96 C-240.88200876 87.76621168 -242.04215077 79.4349078 -241 71 C-238.9375 68.0625 -238.9375 68.0625 -236 66 C-234.81458462 64.8523883 -233.64893535 63.6841325 -232.5 62.5 C-231.90058594 61.90316406 -231.30117188 61.30632813 -230.68359375 60.69140625 C-229.29082015 59.29216966 -227.92318347 57.86796211 -226.5625 56.4375 C-224.46578894 54.44306753 -222.46531119 52.85850914 -220.125 51.1875 C-216.40355861 48.46825469 -213.54615307 45.40947242 -210.59375 41.88671875 C-208.53200475 39.44597621 -206.28882583 37.22696568 -204 35 C-203.34 34.29875 -202.68 33.5975 -202 32.875 C-200 31 -200 31 -197.5625 29.625 C-194.32276941 27.5705367 -192.41791038 24.96194021 -190 22 C-188.33333333 20.66666667 -186.66666667 19.33333333 -185 18 C-184.195625 16.989375 -183.39125 15.97875 -182.5625 14.9375 C-180 12 -180 12 -174 9 C-173.67 33.75 -173.34 58.5 -173 84 C-167.44618614 79.38841794 -167.44618614 79.38841794 -162.875 74.3125 C-160.51021559 71.43963194 -158.21369346 69.89525512 -155 68 C-153.31267723 66.01739574 -151.64633943 64.0167658 -150 62 C-147.5 60 -147.5 60 -145 58 C-144.175 56.989375 -143.35 55.97875 -142.5 54.9375 C-140.0720947 52.08471127 -138.15222044 50.89133227 -135 49 C-133.75476146 47.53125711 -132.51129471 46.05994674 -131.3203125 44.546875 C-129.158927 42.01460087 -126.58657709 40.0912751 -124 38 C-123.360625 37.360625 -122.72125 36.72125 -122.0625 36.0625 C-120.28698197 34.28698197 -118.478285 32.68100801 -116.5625 31.0625 C-114.41891301 29.24729229 -112.42866861 27.42866861 -110.4375 25.4375 C-107.76463355 22.76463355 -104.90292323 20.41910269 -102 18 C-101.154375 17.154375 -100.30875 16.30875 -99.4375 15.4375 C-97 13 -97 13 -92 9 C-92 33.75 -92 58.5 -92 84 C-86.79010141 80.6756502 -86.79010141 80.6756502 -83.0625 76.5625 C-80.54926456 73.47687848 -77.92817434 71.38397171 -74.6484375 69.1640625 C-71.34966189 66.83459536 -68.74931854 63.86952172 -66.125 60.82421875 C-62.33753498 56.4413757 -58.91850135 53.12995541 -54 50 C-52.65576661 48.34211215 -51.32381517 46.67423683 -50 45 C-42.70833333 38 -42.70833333 38 -40 38 C-40 37.34 -40 36.68 -40 36 C-38.42578125 34.44921875 -38.42578125 34.44921875 -36.3125 32.6875 C-33.92515729 30.66035285 -31.65468039 28.65468039 -29.4375 26.4375 C-26.45724046 23.45724046 -23.40468537 20.4956258 -20 18 C-19.34 18 -18.68 18 -18 18 C-17.79375 17.46375 -17.5875 16.9275 -17.375 16.375 C-15.46749574 13.08021991 -12.95180616 10.40636372 -10 8 C-9.34 8 -8.68 8 -8 8 C-7.67 7.01 -7.34 6.02 -7 5 C-2.04225352 0 -2.04225352 0 0 0 Z " fill="#FDFDFC" transform="translate(629,525)"/>
<path d="M0 0 C5.94 0 11.88 0 18 0 C18 46.53 18 93.06 18 141 C23.20494354 137.67005144 23.20494354 137.67005144 27 133.5625 C28.90129015 131.2281935 30.76973681 129.25092571 33.125 127.375 C36.04496848 125.13435632 36.04496848 125.13435632 38.0625 122.375 C40 120 40 120 42.4375 118.5625 C45.12450326 116.92408338 46.67918489 115.07549262 48.60546875 112.6171875 C50.64760632 110.24899435 53.01851842 108.35094859 55.44921875 106.39453125 C57.2540202 104.88740659 57.2540202 104.88740659 59 102 C59.763125 101.566875 60.52625 101.13375 61.3125 100.6875 C64.01961372 98.98768441 65.59120316 97.1669799 67.55078125 94.67578125 C69.81770046 92.05446496 72.4570907 89.90024138 75.08984375 87.65625 C76.63828336 86.3136357 78.1133143 84.8866857 79.5625 83.4375 C82.54275954 80.45724046 85.59531463 77.4956258 89 75 C89.66 75 90.32 75 91 75 C91.268125 74.38125 91.53625 73.7625 91.8125 73.125 C93 71 93 71 96 69 C96.33 94.08 96.66 119.16 97 145 C98.32 143.68 99.64 142.36 101 141 C102.13445317 140.00767072 103.27984343 139.0276594 104.4375 138.0625 C108.66772589 134.46230775 112.46756871 130.66245477 116 126.375 C118.41353477 123.51085643 120.72335861 121.84836181 124 120 C124.886875 119.113125 125.77375 118.22625 126.6875 117.3125 C127.450625 116.549375 128.21375 115.78625 129 115 C129.66 115 130.32 115 131 115 C131.20625 114.443125 131.4125 113.88625 131.625 113.3125 C133.17282456 110.70934052 135.07290128 109.14846227 137.4296875 107.28125 C139.20630219 105.87564088 139.20630219 105.87564088 141.4375 103.5625 C143.40902019 101.59097981 145.36197192 99.83572415 147.5 98.0625 C149.78823338 96.13998858 151.72033058 94.22657961 153.5625 91.875 C156 89 156 89 158.875 87.125 C162.29653808 84.7983541 164.48342767 82.24823226 167.125 79.10546875 C170.11495235 75.74800142 173.45666778 72.76552758 177 70 C177.33 70 177.66 70 178 70 C178.33 94.75 178.66 119.5 179 145 C179.66 145 180.32 145 181 145 C181.25394531 144.39671875 181.50789062 143.7934375 181.76953125 143.171875 C183.15319347 140.72960136 184.37133925 139.79714078 186.6875 138.25 C189.83070472 136.01786911 192.23260275 133.72171772 194.6875 130.75 C197.2740899 127.63191903 199.13002214 126.32684955 203 125 C203.46019531 124.07574219 203.46019531 124.07574219 203.9296875 123.1328125 C205.11265107 120.77552012 206.25390398 119.74083812 208.3125 118.125 C210.68515159 116.18373961 212.68086329 114.2942472 214.5625 111.875 C217 109 217 109 219.9375 107.0625 C223.14472808 104.90253007 225.14844547 102.67158416 227.58203125 99.71875 C230.97398888 95.6072862 234.81585016 92.33059337 239 89.0625 C241.89285209 86.79015612 244.48612545 84.65334561 246.75 81.75 C249.20628498 78.74787391 251.77017983 77.10640446 255 75 C258.37907387 71.56205464 258.39056149 68.74466364 258.43237305 64.02832031 C258.4425647 63.3352327 258.45275635 62.64214508 258.46325684 61.92805481 C258.49337191 59.64466249 258.5026501 57.36168977 258.51171875 55.078125 C258.52856661 53.49199023 258.54671701 51.9058688 258.56611633 50.31976318 C258.61361111 46.15069752 258.64342369 41.98168597 258.66955566 37.81243896 C258.69936392 33.55584021 258.74589331 29.29942784 258.79101562 25.04296875 C258.87704292 16.69538857 258.94284473 8.34782785 259 0 C265.6 0 272.2 0 279 0 C279.02320628 21.25426534 279.04102389 42.50852759 279.05181217 63.76280308 C279.05695578 73.63280737 279.06396139 83.50280361 279.07543945 93.37280273 C279.08544564 101.98128021 279.09186749 110.58975185 279.09408849 119.19823498 C279.09538557 123.75107129 279.09840731 128.30389094 279.10573006 132.85672188 C279.11258417 137.15353625 279.11459812 141.45032729 279.11310768 145.74714661 C279.11337983 147.31309067 279.11532869 148.87903561 279.11920547 150.4449749 C279.18220699 177.23709719 279.18220699 177.23709719 276.125 188.875 C275.94936523 189.58261475 275.77373047 190.29022949 275.59277344 191.01928711 C274.30440474 196.10787583 272.79314605 201.06884835 271 206 C270.34 206 269.68 206 269 206 C268.84144531 206.61746094 268.68289063 207.23492188 268.51953125 207.87109375 C266.79195772 214.14189933 264.38825255 219.45558674 261 225 C260.34 225 259.68 225 259 225 C258.72671875 225.56847656 258.4534375 226.13695312 258.171875 226.72265625 C254.74788316 233.37661372 250.86816083 238.40752631 245 243 C244.360625 243.825 243.72125 244.65 243.0625 245.5 C240.81433576 248.22504756 238.49029591 249.85024907 235.58984375 251.8125 C233.85398779 252.98688459 233.85398779 252.98688459 232.5 255.0625 C230.20552795 258.02619306 227.29752989 259.23346613 224 261 C223.01 261.66 222.02 262.32 221 263 C220.01 263 219.02 263 218 263 C217.67 263.99 217.34 264.98 217 266 C207.47963203 273.40268457 196.49024951 272.977292 185 273 C185 273.66 185 274.32 185 275 C183.72125 275.226875 182.4425 275.45375 181.125 275.6875 C176.38622852 276.72223175 172.42463594 278.5998376 168.1640625 280.87890625 C166 282 166 282 163 283 C163 283.66 163 284.32 163 285 C158.01587128 286.00010314 153.26417122 286.14575699 148.20703125 286.1328125 C147.37918625 286.13376923 146.55134125 286.13472595 145.69841003 286.13571167 C143.95787479 286.13638921 142.21733696 286.13456475 140.47680664 286.13037109 C137.81065232 286.12499628 135.14466489 286.13034099 132.47851562 286.13671875 C130.7838538 286.13605829 129.08919207 286.1347778 127.39453125 286.1328125 C126.59763382 286.13483673 125.80073639 286.13686096 124.97969055 286.13894653 C121.7272934 286.12511473 119.10753618 286.03584539 116 285 C115.11828125 284.06220703 115.11828125 284.06220703 114.21875 283.10546875 C111.50153381 280.52698367 109.00952736 279.58832589 105.5 278.3125 C103.81390625 277.68794922 103.81390625 277.68794922 102.09375 277.05078125 C99.73030899 276.24804687 97.43237385 275.54251476 95 275 C95 274.34 95 273.68 95 273 C94.4423999 273.00636475 93.8847998 273.01272949 93.31030273 273.01928711 C80.79061473 273.06172673 67.06989158 272.84685437 57.4453125 263.48828125 C56.96835937 262.99714844 56.49140625 262.50601562 56 262 C53.23524152 260.20540526 50.41901609 258.51384435 47.59375 256.81640625 C45.07693408 255.05387703 43.74026189 253.48534407 42 251 C41.21625 250.54625 40.4325 250.0925 39.625 249.625 C36.8967602 247.93608965 35.22215381 246.04348937 33.25 243.53515625 C31.86880381 241.77907541 31.86880381 241.77907541 29.5 239.5625 C27.08861179 237.09082708 25.21714703 234.60562167 23.30859375 231.74609375 C21.99282746 229.89157542 21.99282746 229.89157542 20.05078125 228.1328125 C17.74806829 225.73799102 16.32369361 223.35837072 14.75 220.4375 C14.22921875 219.48746094 13.7084375 218.53742188 13.171875 217.55859375 C12 215 12 215 12 212 C11.34 212 10.68 212 10 212 C9.03599018 209.50206261 8.07872453 207.00186341 7.125 204.5 C6.85558594 203.80390625 6.58617187 203.1078125 6.30859375 202.390625 C3.45901232 194.8844105 1.71163225 188.07429687 2 180 C1.34 180 0.68 180 0 180 C0 120.6 0 61.2 0 0 Z M254.4375 89.875 C253.79683594 90.40867187 253.15617188 90.94234375 252.49609375 91.4921875 C250.76521904 92.88260353 250.76521904 92.88260353 251 95 C250.46375 95.20625 249.9275 95.4125 249.375 95.625 C246.08021991 97.53250426 243.40636372 100.04819384 241 103 C241 103.66 241 104.32 241 105 C240.12794922 105.41378906 240.12794922 105.41378906 239.23828125 105.8359375 C232.87777278 109.14384592 228.04510816 113.7475634 223.54296875 119.265625 C222 121 222 121 219 123 C219 123.66 219 124.32 219 125 C218.41089844 125.27328125 217.82179688 125.5465625 217.21484375 125.828125 C212.54360276 128.29968108 208.69066924 131.99032683 205.4375 136.125 C203 139 203 139 200.0625 140.9375 C196.89479465 143.07085259 195.01707873 145.22244035 192.62890625 148.140625 C189.20821437 152.04529967 185.10200022 155.26280974 181.109375 158.5625 C178.22773986 160.9680389 175.6516164 163.30471015 173.3125 166.25 C171 169 171 169 167 171 C167 146.25 167 121.5 167 96 C161.94586665 99.79060001 158.216152 102.67574154 154 107 C152.86090909 107.96633778 151.71456592 108.9241683 150.5625 109.875 C148.05577187 111.97934661 145.94816787 114.15599681 143.875 116.6875 C141.51021559 119.56036806 139.21369346 121.10474488 136 123 C134.31267723 124.98260426 132.64633943 126.9832342 131 129 C129.33729713 130.33827304 127.67083819 131.67189785 126 133 C125.34 133.845625 124.68 134.69125 124 135.5625 C122 138 122 138 119.625 139.375 C116.56303947 141.27049938 114.80454365 143.46890557 112.54296875 146.23046875 C110.27261739 148.83418816 107.69078782 150.83567066 105 153 C104.360625 153.639375 103.72125 154.27875 103.0625 154.9375 C101.28698197 156.71301803 99.478285 158.31899199 97.5625 159.9375 C94.55465884 162.48804625 91.75176507 165.17179702 89 168 C88.01 168.99 87.02 169.98 86 171 C85.67 146.25 85.34 121.5 85 96 C77.75245102 100.49110754 77.75245102 100.49110754 72.44140625 106.30078125 C71.01016941 107.98801167 69.53843362 109.30929748 67.8125 110.6875 C65.01993428 112.79028122 65.01993428 112.79028122 63.4375 115.125 C62 117 62 117 59.625 118.375 C56.93625517 120.03946109 55.38790375 121.85958136 53.44921875 124.32421875 C51.18346947 126.9441822 48.54581531 129.09743265 45.9140625 131.33984375 C44.34219244 132.70320044 42.84631182 134.15368818 41.375 135.625 C38.72411634 138.27588366 35.87910698 140.60074418 33 143 C29.57358259 146.25509654 26.51216005 149.69702288 23.52734375 153.3515625 C22 155 22 155 19.83984375 156.3046875 C17.69574321 157.92727018 17.69574321 157.92727018 17.5390625 160.96875 C17.72232789 168.49929166 18.31944181 175.64755791 20 183 C20.66 183 21.32 183 22 183 C22.103125 184.134375 22.20625 185.26875 22.3125 186.4375 C23.33083788 194.47105437 26.60705647 201.7146441 30 209 C30.66 209 31.32 209 32 209 C32.20625 209.825 32.4125 210.65 32.625 211.5 C34.35020787 215.89143822 36.77469061 219.54681549 40 223 C40.66 223 41.32 223 42 223 C42.2475 223.556875 42.495 224.11375 42.75 224.6875 C44.24428867 227.45193405 45.87227511 229.68453468 48 232 C49.32860925 232.35169068 50.66158328 232.68770276 52 233 C52.68486725 234.32407669 53.34870203 235.65909241 54 237 C56.50968236 239.3061946 58.56389905 240.83150645 61.75 242.0625 C62.4925 242.371875 63.235 242.68125 64 243 C64.33 243.99 64.66 244.98 65 246 C67.89927952 247.92302707 67.89927952 247.92302707 71.375 249.6875 C72.53773438 250.31011719 73.70046875 250.93273437 74.8984375 251.57421875 C77.88536701 253.20883946 77.88536701 253.20883946 81 253 C81 253.66 81 254.32 81 255 C83.49793739 255.96400982 85.99813659 256.92127547 88.5 257.875 C89.54414063 258.27912109 89.54414063 258.27912109 90.609375 258.69140625 C97.3005408 261.23157104 103.74521912 263.36273904 111 263 C111 263.66 111 264.32 111 265 C119.74782868 267.0939459 128.24291941 267.30989456 137.17919922 267.26074219 C139.49603439 267.25001836 141.81209446 267.2606943 144.12890625 267.2734375 C152.29095316 267.279986 160.01426074 266.91152646 168 265 C168 264.34 168 263.68 168 263 C169.15242188 263.10634766 169.15242188 263.10634766 170.328125 263.21484375 C175.46959952 262.91401279 179.91224655 261.25339741 184.75 259.5625 C185.70777344 259.23701172 186.66554688 258.91152344 187.65234375 258.57617188 C192.41160467 256.99618689 192.41160467 256.99618689 197 255 C197 254.34 197 253.68 197 253 C197.54527344 252.84144531 198.09054687 252.68289063 198.65234375 252.51953125 C206.45899973 250.10413855 213.34553136 247.01927307 219 241 C220.29997967 240.00427089 221.6140419 239.02680404 222.9375 238.0625 C226.2639583 235.61077703 229.1494886 233.00459309 232 230 C232.886875 229.154375 233.77375 228.30875 234.6875 227.4375 C237.00606587 225.23050295 237.00606587 225.23050295 238 223 C239 221 239 221 241.3125 218.875 C245.305863 214.60303028 249 208.99175187 249 203 C249.66 203 250.32 203 251 203 C258.10619442 187.2756549 259.58045765 172.74156898 259.390625 155.75 C259.3831443 153.75505141 259.37746005 151.76009536 259.37347412 149.76513672 C259.35836155 144.57013877 259.31920757 139.37560388 259.2746582 134.18078613 C259.23339135 128.85756693 259.2153967 123.5342713 259.1953125 118.2109375 C259.15269624 107.80709066 259.08462411 97.40358416 259 87 C257.12696296 87 255.80383617 88.72120501 254.4375 89.875 Z " fill="#020202" transform="translate(370,438)"/>
<path d="M0 0 C2.49656133 0.00539903 4.99294578 0.00000304 7.48950195 -0.00634766 C9.0982263 -0.0056874 10.70695054 -0.00440734 12.31567383 -0.00244141 C13.05123001 -0.00446564 13.78678619 -0.00648987 14.54463196 -0.00857544 C19.01753054 0.01152315 23.25661093 0.40143228 27.67114258 1.13037109 C27.67114258 1.79037109 27.67114258 2.45037109 27.67114258 3.13037109 C28.2512207 3.17935547 28.83129883 3.22833984 29.42895508 3.27880859 C34.14301523 3.72998927 38.18169535 4.56882423 42.67114258 6.13037109 C55.63769856 8.43811921 69.30815052 8.44950581 81.76098633 4.00537109 C84.87336891 3.06956747 87.43978182 2.97626745 90.67114258 3.13037109 C90.67114258 2.47037109 90.67114258 1.81037109 90.67114258 1.13037109 C95.77832885 0.2890597 100.73430133 -0.0169396 105.91333008 -0.00244141 C106.681138 -0.00339813 107.44894592 -0.00435486 108.24002075 -0.00534058 C109.85524579 -0.00601729 111.47047363 -0.00419873 113.08569336 0 C115.53220869 0.00534068 117.97853923 0.00004523 120.42504883 -0.00634766 C122.00447631 -0.0056865 123.58390368 -0.00440456 125.16333008 -0.00244141 C125.88237518 -0.00446564 126.60142029 -0.00648987 127.34225464 -0.00857544 C132.51451457 0.01480007 137.53757072 0.49428067 142.67114258 1.13037109 C142.67114258 1.79037109 142.67114258 2.45037109 142.67114258 3.13037109 C143.92668945 3.17935547 145.18223633 3.22833984 146.47583008 3.27880859 C155.05408247 3.64954253 163.29899744 4.07164688 171.67114258 6.13037109 C171.67114258 10.75037109 171.67114258 15.37037109 171.67114258 20.13037109 C169.69114258 20.62537109 169.69114258 20.62537109 167.67114258 21.13037109 C166.48784075 22.99682016 166.48784075 22.99682016 165.67114258 25.13037109 C164.68114258 26.61537109 164.68114258 26.61537109 163.67114258 28.13037109 C163.24735112 30.33232104 163.24735112 30.33232104 163.10864258 32.77099609 C163.03387695 33.67720703 162.95911133 34.58341797 162.88208008 35.51708984 C162.77766602 36.93441406 162.77766602 36.93441406 162.67114258 38.38037109 C162.20848508 44.5577055 161.62583615 50.23371216 159.67114258 56.13037109 C159.01114258 56.13037109 158.35114258 56.13037109 157.67114258 56.13037109 C157.56801758 56.68724609 157.46489258 57.24412109 157.35864258 57.81787109 C156.12099722 61.98086004 153.90536582 65.26577336 150.67114258 68.13037109 C146.48680668 70.25755441 142.40319956 71.57400144 137.67114258 71.13037109 C137.67114258 71.79037109 137.67114258 72.45037109 137.67114258 73.13037109 C131.07239587 74.33361579 124.5513556 74.27814834 117.85864258 74.25537109 C116.73393555 74.25923828 115.60922852 74.26310547 114.45043945 74.26708984 C107.79526045 74.25935576 101.27666688 73.95173497 94.67114258 73.13037109 C94.67114258 72.47037109 94.67114258 71.81037109 94.67114258 71.13037109 C94.01114258 71.04787109 93.35114258 70.96537109 92.67114258 70.88037109 C87.85452376 69.67621639 83.20582638 67.6650549 79.67114258 64.13037109 C79.67114258 63.14037109 79.67114258 62.15037109 79.67114258 61.13037109 C78.68114258 60.80037109 77.69114258 60.47037109 76.67114258 60.13037109 C72.29269147 52.45198441 69.34956607 41.95764629 69.67114258 33.13037109 C69.01114258 33.13037109 68.35114258 33.13037109 67.67114258 33.13037109 C67.42364258 32.34662109 67.17614258 31.56287109 66.92114258 30.75537109 C65.90045234 28.10617534 65.90045234 28.10617534 63.98364258 26.81787109 C59.73316761 25.55421637 55.84787805 25.73812594 51.67114258 27.13037109 C50.44593994 30.13884528 50.44593994 30.13884528 49.67114258 33.13037109 C49.01114258 33.13037109 48.35114258 33.13037109 47.67114258 33.13037109 C47.64536133 33.78521484 47.61958008 34.44005859 47.59301758 35.11474609 C47.12461151 42.65182559 45.3065114 49.0825265 42.67114258 56.13037109 C42.46875977 56.82388672 42.26637695 57.51740234 42.05786133 58.23193359 C40.46464269 63.15248641 37.3223776 65.3125012 33.10083008 67.90771484 C29.65784258 69.64027929 26.45676132 70.44207678 22.67114258 71.13037109 C22.67114258 71.79037109 22.67114258 72.45037109 22.67114258 73.13037109 C17.71029244 73.94002686 12.90461517 74.27824003 7.87426758 74.26318359 C6.80109283 74.26461868 6.80109283 74.26461868 5.70623779 74.26608276 C4.20707104 74.26675849 2.70790125 74.26494695 1.20874023 74.26074219 C-1.0864106 74.25535336 -3.38136858 74.26072396 -5.67651367 74.26708984 C-7.13875369 74.26642957 -8.60099358 74.26514947 -10.06323242 74.26318359 C-10.7476239 74.26520782 -11.43201538 74.26723206 -12.137146 74.26931763 C-15.15056384 74.2544261 -17.44461312 74.09178586 -20.32885742 73.13037109 C-20.32885742 72.47037109 -20.32885742 71.81037109 -20.32885742 71.13037109 C-21.15385742 71.21287109 -21.97885742 71.29537109 -22.82885742 71.38037109 C-28.36004259 70.98528644 -32.4692873 68.60849093 -36.76635742 65.19287109 C-38.55945921 62.82597674 -39.00365565 61.05718703 -39.32885742 58.13037109 C-39.98885742 58.13037109 -40.64885742 58.13037109 -41.32885742 58.13037109 C-43.32208368 54.71936884 -43.8651167 51.58882131 -44.39135742 47.69287109 C-44.56151367 46.45923828 -44.73166992 45.22560547 -44.90698242 43.95458984 C-45.42441671 39.26414381 -45.61567529 34.58976094 -45.69213867 29.87255859 C-46.5419505 26.21263279 -48.34623568 25.26420223 -51.32885742 23.13037109 C-51.32885742 22.47037109 -51.32885742 21.81037109 -51.32885742 21.13037109 C-52.31885742 20.80037109 -53.30885742 20.47037109 -54.32885742 20.13037109 C-54.32885742 15.51037109 -54.32885742 10.89037109 -54.32885742 6.13037109 C-51.49679624 5.62205242 -48.66356008 5.12355604 -45.82885742 4.63037109 C-45.03737305 4.48728516 -44.24588867 4.34419922 -43.43041992 4.19677734 C-38.31646562 3.31650652 -33.5177334 2.98755799 -28.32885742 3.13037109 C-28.32885742 2.47037109 -28.32885742 1.81037109 -28.32885742 1.13037109 C-18.87765372 0.098647 -9.49364246 -0.02446088 0 0 Z " fill="#060606" transform="translate(451.328857421875,359.86962890625)"/>
<path d="M0 0 C1.65 0.33 3.3 0.66 5 1 C7.14427621 7.43282864 6.76689666 14.01820039 4 20.1875 C3.35372751 21.46882497 2.694567 22.74419807 2 24 C1.34 24 0.68 24 0 24 C-0.268125 24.598125 -0.53625 25.19625 -0.8125 25.8125 C-1.98493467 27.97224808 -3.19369282 29.35790256 -5 31 C-4.67 31.99 -4.34 32.98 -4 34 C-3.13375 34.268125 -2.2675 34.53625 -1.375 34.8125 C3.03076528 36.36267667 5.69502822 38.76963254 9 42 C9.54011719 42.52722656 10.08023438 43.05445313 10.63671875 43.59765625 C17.17058839 50.55943675 19.39689175 58.65182207 20 68 C20.66 68 21.32 68 22 68 C22 71.96 22 75.92 22 80 C16.72 80 11.44 80 6 80 C2 70.25 2 70.25 2 68 C1.34 68 0.68 68 0 68 C-1.0078125 66.4609375 -1.0078125 66.4609375 -2.125 64.375 C-4.57091159 60.24477804 -7.37652998 57.88571855 -11.328125 55.2265625 C-13 54 -13 54 -14 52 C-18.8993167 50.30408268 -23.17786449 49.03241068 -28.1875 50.75 C-30.11660657 51.85997846 -30.11660657 51.85997846 -30.875 53.8125 C-32.56536631 57.09932339 -35.06104817 58.82517565 -38 61 C-39.32676508 61.35858516 -40.65835921 61.7018576 -42 62 C-42.33 62.99 -42.66 63.98 -43 65 C-45.24100222 66.36982727 -47.39754612 67.54698845 -49.75 68.6875 C-50.37132812 69.00783203 -50.99265625 69.32816406 -51.6328125 69.65820312 C-55.22530227 71.43550028 -57.98396001 72.40620252 -62 72 C-62 72.66 -62 73.32 -62 74 C-71.34069354 76.58086508 -80.015024 77.47974255 -89.6875 77.375 C-90.99154785 77.36919922 -92.2955957 77.36339844 -93.63916016 77.35742188 C-103.66349461 77.22335028 -113.23266717 76.22345788 -123 74 C-123 73.34 -123 72.68 -123 72 C-124.2375 71.896875 -125.475 71.79375 -126.75 71.6875 C-131.63932059 71.15538151 -136.26711004 70.00349321 -141.0078125 68.71875 C-146.99994328 67.27938699 -152.91475067 66.79679543 -159.0625 66.75 C-159.74376953 66.729375 -160.42503906 66.70875 -161.12695312 66.6875 C-165.84171214 66.65126746 -169.0565756 67.40396067 -173 70 C-174.52280858 71.9739321 -174.52280858 71.9739321 -175.375 74.1875 C-175.69210937 74.90292969 -176.00921875 75.61835938 -176.3359375 76.35546875 C-176.55507813 76.89816406 -176.77421875 77.44085938 -177 78 C-177.66 78 -178.32 78 -179 78 C-179 78.66 -179 79.32 -179 80 C-186.26 80 -193.52 80 -201 80 C-200.01 74.06 -200.01 74.06 -199 68 C-198.34 68 -197.68 68 -197 68 C-196.84144531 67.43152344 -196.68289063 66.86304688 -196.51953125 66.27734375 C-194.82239607 60.66085772 -192.75702054 56.52769142 -189 52 C-188.34 52 -187.68 52 -187 52 C-186.773125 51.4225 -186.54625 50.845 -186.3125 50.25 C-184.65598007 47.41025155 -182.60531294 45.98500033 -180 44 C-179.4225 43.360625 -178.845 42.72125 -178.25 42.0625 C-174.54477079 38.66603989 -169.75479877 35.56744975 -164.78125 34.54296875 C-164.1934375 34.36378906 -163.605625 34.18460937 -163 34 C-162.67 33.01 -162.34 32.02 -162 31 C-159.28621385 29.80640916 -156.67712311 28.8074791 -153.875 27.875 C-153.12734375 27.61074219 -152.3796875 27.34648437 -151.609375 27.07421875 C-147.06721473 25.51532402 -142.77385374 24.51917242 -138 24 C-138 23.34 -138 22.68 -138 22 C-111.88142292 14 -111.88142292 14 -104 14 C-104 13.34 -104 12.68 -104 12 C-102.77023437 11.67386719 -101.54046875 11.34773438 -100.2734375 11.01171875 C-98.64053454 10.57064726 -97.00772703 10.12922228 -95.375 9.6875 C-94.56675781 9.47416016 -93.75851562 9.26082031 -92.92578125 9.04101562 C-89.27458977 8.04658542 -86.06449573 7.03224786 -82.6640625 5.33203125 C-80 4 -80 4 -76 4 C-74.74930199 6.50139602 -74.86697533 8.27392691 -74.875 11.0625 C-74.87113281 12.41021484 -74.87113281 12.41021484 -74.8671875 13.78515625 C-75 16 -75 16 -76 17 C-70.43109483 16.52013969 -65.32932432 15.70084819 -60 14 C-60 13.34 -60 12.68 -60 12 C-59.49210938 11.75765625 -58.98421875 11.5153125 -58.4609375 11.265625 C-54.06435373 9.12496624 -49.90700008 6.95407323 -46 4 C-45.67 3.01 -45.34 2.02 -45 1 C-40.63521657 1.16787629 -38.63131724 1.33630752 -35.5625 4.5625 C-33.63077967 8.81228473 -33.68182288 11.38643175 -34 16 C-28.06 15.01 -28.06 15.01 -22 14 C-22 13.34 -22 12.68 -22 12 C-21.05640625 11.63648438 -21.05640625 11.63648438 -20.09375 11.265625 C-15.80102771 9.58473977 -11.60120343 7.86091353 -7.5 5.75 C-4 4 -4 4 -2 4 C-1.34 2.68 -0.68 1.36 0 0 Z " fill="#020202" transform="translate(599,269)"/>
<path d="M0 0 C0.33 0 0.66 0 1 0 C1.33 25.08 1.66 50.16 2 76 C3.32 74.68 4.64 73.36 6 72 C7.13445317 71.00767072 8.27984343 70.0276594 9.4375 69.0625 C13.66772589 65.46230775 17.46756871 61.66245477 21 57.375 C23.41353477 54.51085643 25.72335861 52.84836181 29 51 C29.886875 50.113125 30.77375 49.22625 31.6875 48.3125 C32.450625 47.549375 33.21375 46.78625 34 46 C34.66 46 35.32 46 36 46 C36.309375 45.1646875 36.309375 45.1646875 36.625 44.3125 C38.17282456 41.70934052 40.07290128 40.14846227 42.4296875 38.28125 C44.20630219 36.87564088 44.20630219 36.87564088 46.4375 34.5625 C48.40902019 32.59097981 50.36197192 30.83572415 52.5 29.0625 C54.78823338 27.13998858 56.72033058 25.22657961 58.5625 22.875 C61 20 61 20 63.875 18.125 C67.29653808 15.7983541 69.48342767 13.24823226 72.125 10.10546875 C75.11495235 6.74800142 78.45666778 3.76552758 82 1 C82.33 1 82.66 1 83 1 C83.33 25.75 83.66 50.5 84 76 C84.66 76 85.32 76 86 76 C86.25394531 75.39671875 86.50789062 74.7934375 86.76953125 74.171875 C88.15319347 71.72960136 89.37133925 70.79714078 91.6875 69.25 C94.83070472 67.01786911 97.23260275 64.72171772 99.6875 61.75 C102.2740899 58.63191903 104.13002214 57.32684955 108 56 C108.46019531 55.07574219 108.46019531 55.07574219 108.9296875 54.1328125 C110.11265107 51.77552012 111.25390398 50.74083812 113.3125 49.125 C115.68515159 47.18373961 117.68086329 45.2942472 119.5625 42.875 C122 40 122 40 124.9375 38.0625 C128.14472808 35.90253007 130.14844547 33.67158416 132.58203125 30.71875 C135.97398888 26.6072862 139.81585016 23.33059337 144 20.0625 C146.89285209 17.79015612 149.48612545 15.65334561 151.75 12.75 C154.21371963 9.73878711 156.73736872 8.0825306 160 6 C161.35375931 4.68741047 162.69081283 3.35704993 164 2 C165.06863124 16.28234131 165.06863124 16.28234131 162.6171875 20.22265625 C160.81888551 21.68231696 159.00360902 22.84310442 157 24 C154.20506407 26.65859759 151.67809443 29.38811123 149.25 32.375 C145.1637083 37.21486757 140.06860662 41.97713113 134 44 C133.5978125 44.8353125 133.5978125 44.8353125 133.1875 45.6875 C131.467157 49.03764163 128.91424712 51.62425507 126 54 C125.34 54 124.68 54 124 54 C124 54.66 124 55.32 124 56 C122.50485526 57.28535171 120.95179881 58.50373806 119.375 59.6875 C115.48376715 62.70608684 112.35916926 65.72991763 109.2890625 69.5546875 C108 71 108 71 105.5625 72.4375 C102.30295408 74.425028 100.33771735 76.9796338 97.890625 79.87890625 C94.4286304 83.76292085 90.43063154 87.05899208 86.37109375 90.30078125 C82.90059746 93.08261509 80.19019644 96.04098768 77.4921875 99.546875 C76 101 76 101 72 102 C71.67 77.58 71.34 53.16 71 28 C66.10718587 32.16077443 66.10718587 32.16077443 61.4375 36.5625 C59 39 59 39 56.125 41.3125 C52.8886379 43.93161778 50.33390529 47.01025242 47.7109375 50.23046875 C45.90327488 52.10003762 44.31147749 52.86485858 42 54 C40.43544512 55.53552467 40.43544512 55.53552467 39.0625 57.3125 C36.5275607 60.39018448 33.85968781 63.21556713 31 66 C30.34 66.70125 29.68 67.4025 29 68.125 C27 70 27 70 24.625 71.3125 C21.58075517 73.26951453 19.74879313 75.52401069 17.47265625 78.30078125 C15.54552573 80.52439339 13.32782926 82.20936211 11 84 C10.195625 84.804375 9.39125 85.60875 8.5625 86.4375 C6 89 6 89 2.9375 91.5 C-0.01702749 93.84433165 -0.01702749 93.84433165 -2 96.5625 C-4 99 -4 99 -10 103 C-10.33 78.25 -10.66 53.5 -11 28 C-16.76778623 32.32583967 -19.79940536 34.7776391 -24 40 C-25.66270287 41.33827304 -27.32916181 42.67189785 -29 44 C-29.66 44.845625 -30.32 45.69125 -31 46.5625 C-33 49 -33 49 -35.4375 50.4375 C-38.12776058 52.07790279 -39.68354264 53.93404474 -41.6171875 56.390625 C-43.62325621 58.72537164 -45.94434025 60.60165045 -48.30859375 62.5625 C-49.79170524 63.82297351 -51.18619822 65.18619822 -52.5625 66.5625 C-55.23536645 69.23536645 -58.09707677 71.58089731 -61 74 C-64.70944351 77.51921563 -67.99752544 81.29724205 -71.25390625 85.23046875 C-73.05948501 87.06028347 -74.65028543 87.99738656 -77 89 C-77.16225719 86.24763726 -77.2809328 83.50482524 -77.375 80.75 C-77.42527344 79.97269531 -77.47554688 79.19539062 -77.52734375 78.39453125 C-77.58563386 76.12121712 -77.55840324 74.20682089 -77 72 C-74.1640625 69.66796875 -74.1640625 69.66796875 -71 68 C-69.31264364 66.3170672 -69.31264364 66.3170672 -68 64.5625 C-66.09870985 62.2281935 -64.23026319 60.25092571 -61.875 58.375 C-58.95503152 56.13435632 -58.95503152 56.13435632 -56.9375 53.375 C-55 51 -55 51 -52.5625 49.5625 C-49.87549674 47.92408338 -48.32081511 46.07549262 -46.39453125 43.6171875 C-44.35239368 41.24899435 -41.98148158 39.35094859 -39.55078125 37.39453125 C-37.7459798 35.88740659 -37.7459798 35.88740659 -36 33 C-35.236875 32.566875 -34.47375 32.13375 -33.6875 31.6875 C-30.98038628 29.98768441 -29.40879684 28.1669799 -27.44921875 25.67578125 C-25.18229954 23.05446496 -22.5429093 20.90024138 -19.91015625 18.65625 C-18.36171664 17.3136357 -16.8866857 15.8866857 -15.4375 14.4375 C-12.45724046 11.45724046 -9.40468537 8.4956258 -6 6 C-5.34 6 -4.68 6 -4 6 C-3.71125 5.38125 -3.4225 4.7625 -3.125 4.125 C-2 2 -2 2 0 0 Z " fill="#FE6804" transform="translate(465,507)"/>
<path d="M0 0 C1.86301758 -0.01160156 1.86301758 -0.01160156 3.76367188 -0.0234375 C11.59928339 -0.00700203 19.00815242 0.68870159 26.6875 2.25 C26.6875 2.91 26.6875 3.57 26.6875 4.25 C27.533125 4.311875 28.37875 4.37375 29.25 4.4375 C37.11953883 6.29757282 37.11953883 6.29757282 39.6875 10.25 C40.2973496 15.31768831 40.08987638 20.17239331 39.6875 25.25 C39.0275 25.25 38.3675 25.25 37.6875 25.25 C37.65011719 25.85585938 37.61273438 26.46171875 37.57421875 27.0859375 C36.94287266 35.13250533 36.04804379 44.5961833 29.6875 50.25 C25.9375 51.5625 25.9375 51.5625 22.6875 52.25 C22.6875 52.91 22.6875 53.57 22.6875 54.25 C14.79330822 56.22833606 7.23881705 56.55394227 -0.875 56.5 C-2.04224609 56.50773437 -3.20949219 56.51546875 -4.41210938 56.5234375 C-11.03159474 56.50852035 -16.91650406 55.97016113 -23.3125 54.25 C-23.3125 53.59 -23.3125 52.93 -23.3125 52.25 C-24.055 52.0025 -24.7975 51.755 -25.5625 51.5 C-29.23544958 49.83047746 -31.4155652 48.19216916 -33.14086914 44.45629883 C-35.45226839 38.07372668 -35.73380305 32.24578883 -35.625 25.5 C-35.62822266 24.48550781 -35.63144531 23.47101563 -35.63476562 22.42578125 C-35.59927814 17.51560443 -35.45533732 13.75073161 -33.3125 9.25 C-31.69140625 7.66796875 -31.69140625 7.66796875 -29.875 6.4375 C-29.27816406 6.01855469 -28.68132812 5.59960938 -28.06640625 5.16796875 C-26.3125 4.25 -26.3125 4.25 -23.3125 4.25 C-23.3125 3.59 -23.3125 2.93 -23.3125 2.25 C-15.48518423 0.11296471 -8.08647823 -0.04989087 0 0 Z " fill="#F9F9F9" transform="translate(451.3125,368.75)"/>
<path d="M0 0 C0 0.66 0 1.32 0 2 C0.886875 2.2475 1.77375 2.495 2.6875 2.75 C6.17160823 4.06475782 8.33669024 5.41278481 11 8 C12.66923489 12.85162205 12.22446439 18.12187354 12.25 23.1875 C12.270625 24.19103516 12.29125 25.19457031 12.3125 26.22851562 C12.34624335 32.71145616 11.49822685 38.0059512 9 44 C8.34 44 7.68 44 7 44 C6.773125 44.61875 6.54625 45.2375 6.3125 45.875 C4.62070165 48.61410209 3.00755839 49.05024472 0 50 C0 50.66 0 51.32 0 52 C-7.73175464 54.0995713 -15.01369368 54.30065311 -23 54.25 C-24.82917969 54.26160156 -24.82917969 54.26160156 -26.6953125 54.2734375 C-33.4512359 54.25884587 -39.4754057 53.77176483 -46 52 C-46 51.34 -46 50.68 -46 50 C-48.65228812 48.92474806 -51.28368454 47.90543849 -54 47 C-58.29649185 39.74967 -61.30670274 31.51100114 -61 23 C-61.66 23 -62.32 23 -63 23 C-63.52825985 17.87392294 -63.80077066 13.10891683 -63 8 C-60.47681514 4.90053218 -57.75740303 3.30438344 -54 2 C-53.01 2 -52.02 2 -51 2 C-51 1.34 -51 0.68 -51 0 C-34.50291615 -3.97349116 -16.60562497 -2.69931785 0 0 Z " fill="#F9F9F9" transform="translate(592,371)"/>
<path d="M0 0 C0 0.66 0 1.32 0 2 C1.0828125 2.4021875 1.0828125 2.4021875 2.1875 2.8125 C8.21862336 5.35897431 11.76987861 8.29574307 15 14 C15 14.66 15 15.32 15 16 C15.66 16 16.32 16 17 16 C18.73734147 19.80043446 19 21.59714577 19 26 C-9.05 26 -37.1 26 -66 26 C-66 16.0952381 -66 16.0952381 -62.6875 12.625 C-62.130625 12.08875 -61.57375 11.5525 -61 11 C-59.8553125 9.515 -59.8553125 9.515 -58.6875 8 C-56.20861451 4.98026676 -53.65448162 3.46179265 -50 2 C-49.34 2 -48.68 2 -48 2 C-48 1.34 -48 0.68 -48 0 C-31.70853461 -5.38243104 -16.27604527 -5.84268292 0 0 Z " fill="#010101" transform="translate(474,721)"/>
<path d="M0 0 C0 0.66 0 1.32 0 2 C1.0828125 2.4021875 1.0828125 2.4021875 2.1875 2.8125 C8.65619041 5.54372484 12.31566811 9.03669993 16 15 C16 15.66 16 16.32 16 17 C16.66 17 17.32 17 18 17 C18.495 21.455 18.495 21.455 19 26 C-9.05 26 -37.1 26 -66 26 C-66 18.125 -66 18.125 -64 15 C-63.34 15 -62.68 15 -62 15 C-61.72542969 14.41476562 -61.45085938 13.82953125 -61.16796875 13.2265625 C-59.08006274 9.24627346 -56.36375609 4.97444639 -52.0859375 3.2109375 C-50.39243638 2.79975822 -48.69637721 2.39914758 -47 2 C-46.67 1.01 -46.34 0.02 -46 -1 C-34.07839516 -7.04791227 -11.8699293 -5.93496465 0 0 Z " fill="#010101" transform="translate(593,721)"/>
<path d="M0 0 C3.55644761 1.31608654 6.89360923 2.81196682 10 5 C10.495 6.485 10.495 6.485 11 8 C12.99117408 8.69258229 14.9921136 9.35747635 17 10 C17.99 10.99 18.98 11.98 20 13 C19.01 15.97 18.02 18.94 17 22 C16.34 22 15.68 22 15 22 C14.79375 22.9075 14.5875 23.815 14.375 24.75 C12.7603156 30.50824951 9.7554744 35.72300658 7 41 C6.34 41 5.68 41 5 41 C4.01 43.475 4.01 43.475 3 46 C-2.4886402 43.45384744 -6.84474949 39.57348171 -10.625 34.875 C-12.85451184 31.97687894 -12.85451184 31.97687894 -15.5 30 C-17.58933273 28.32853382 -19.02630044 26.86342379 -20.6875 24.8125 C-22.69390251 21.98352767 -22.69390251 21.98352767 -25 21 C-25.3125 18.8125 -25.3125 18.8125 -25 16 C-22.6875 13.375 -22.6875 13.375 -20 11 C-18.2064965 9.33934861 -17.13486299 8.32159637 -16.1875 6.0625 C-12.62159459 -0.13091467 -6.50070271 -1.22146962 0 0 Z " fill="#FF6804" transform="translate(514,415)"/>
<path d="M0 0 C0.495 1.485 0.495 1.485 1 3 C0.67 3.66 0.34 4.32 0 5 C0.87460528 4.99962028 1.74921057 4.99924056 2.65031904 4.99884933 C54.80295105 4.97633763 106.95558254 4.95924668 159.10821846 4.94893467 C165.40849005 4.94768437 171.70876163 4.94639001 178.0090332 4.94506836 C179.2629943 4.94480605 180.5169554 4.94454374 181.80891532 4.94427348 C201.95673399 4.93995444 222.10454972 4.93208825 242.25236665 4.9228472 C263.01665822 4.91340478 283.78094827 4.90792232 304.54524189 4.90591151 C316.16992373 4.90467759 327.79459946 4.90175407 339.4192791 4.89426994 C389.62227417 4.86285219 439.80620685 4.9593032 490 6 C490 6.33 490 6.66 490 7 C439.63734513 7.01711373 389.27469005 7.03303494 338.91203308 7.04234314 C338.16697221 7.0424812 337.42191133 7.04261925 336.65427286 7.04276149 C320.46315049 7.04575421 304.2720281 7.04852442 288.08090566 7.05106533 C280.14109531 7.0523127 272.20128496 7.05360925 264.26147461 7.05493164 C263.07629763 7.05512778 263.07629763 7.05512778 261.86717767 7.05532788 C236.2446682 7.05959129 210.62216093 7.06710414 184.9996528 7.07629722 C158.67516129 7.08572504 132.35067101 7.09188434 106.02617784 7.09391499 C102.31034117 7.09420316 98.5945045 7.09452879 94.87866783 7.09487724 C93.7816436 7.09497838 93.7816436 7.09497838 92.66245726 7.09508156 C80.87687819 7.09626452 69.09130289 7.10090594 57.30572535 7.10683203 C45.46504512 7.11271234 33.62436897 7.1148886 21.78368733 7.11350138 C15.36499399 7.11285866 8.94631171 7.11386808 2.52762032 7.11920547 C-3.34280547 7.12405152 -9.21321268 7.12433064 -15.0836393 7.12089889 C-17.21292047 7.1204744 -19.34220278 7.12175997 -21.4714817 7.12488318 C-24.35540143 7.128869 -27.23925322 7.1267496 -30.12317181 7.12304783 C-30.95873548 7.12567484 -31.79429915 7.12830186 -32.65518293 7.13100848 C-36.57270265 7.11956773 -40.17446298 6.96820377 -44 6 C-44 5.67 -44 5.34 -44 5 C-42.1605481 4.98598145 -42.1605481 4.98598145 -40.28393555 4.97167969 C-35.73815457 4.93183536 -31.19305438 4.86609244 -26.64770508 4.79248047 C-24.67969502 4.76423851 -22.71157085 4.74304006 -20.7434082 4.72900391 C-17.9155827 4.70761879 -15.08913385 4.6609926 -12.26171875 4.609375 C-11.38037766 4.60814636 -10.49903656 4.60691772 -9.59098816 4.60565186 C-4.74375287 4.6249716 -4.74375287 4.6249716 -0.92114258 1.96191406 C-0.61716553 1.31448242 -0.31318848 0.66705078 0 0 Z " fill="#F24C1B" transform="translate(287,919)"/>
<path d="M0 0 C0.66 0.33 1.32 0.66 2 1 C2 1.66 2 2.32 2 3 C2.763125 3.268125 3.52625 3.53625 4.3125 3.8125 C6.91752101 4.9635558 8.24363005 5.80453756 10 8 C11.5446194 12.63385819 11.48978632 16.46941774 10 21.125 C6.58171246 26.03878834 2.40832454 28.51833509 -3.4375 29.6875 C-8.41787306 28.72637538 -12.20633214 26.34591736 -16 23 C-17.54211818 18.37364546 -17.64206465 13.82606839 -17 9 C-14.47429367 5.58688333 -13.00086696 4.33362232 -9 3 C-9 2.34 -9 1.68 -9 1 C-6.01405576 -0.49297212 -3.29146376 -0.11755228 0 0 Z " fill="#050505" transform="translate(564,380)"/>
<path d="M0 0 C2.97 0 5.94 0 9 0 C9 0.66 9 1.32 9 2 C9.7425 2.2475 10.485 2.495 11.25 2.75 C14.85099634 4.38681652 17.22204346 6.44408692 19 10 C19.2430836 14.94269981 19.25495121 18.49009758 17 23 C16.34 23 15.68 23 15 23 C15 23.66 15 24.32 15 25 C11.01288377 28.57465593 6.76148237 28.50566253 1.6640625 28.34765625 C-2.15898885 27.84875365 -4.2495852 26.67989135 -7 24 C-9.38022433 19.34774336 -9.77760257 14.1397633 -9 9 C-6.82782838 5.35385477 -4.8137947 3.70963211 -1 2 C-0.67 1.34 -0.34 0.68 0 0 Z " fill="#050505" transform="translate(454,381)"/>
<path d="M0 0 C6.69034366 0.44602291 12.02812122 3.07345542 18 6 C17.34 6.66 16.68 7.32 16 8 C10.72 5.69 5.44 3.38 0 1 C0 0.67 0 0.34 0 0 Z " fill="#FD851D" transform="translate(816,112)"/>
<path d="M0 0 C3.58488275 0.61245149 5.72891909 2.07344368 8.5625 4.3125 C9.70912109 5.20388672 9.70912109 5.20388672 10.87890625 6.11328125 C12.9237853 7.93220681 14.44860204 9.75468602 16 12 C12.21751528 10.31991577 9.0307578 7.92161446 5.75 5.4375 C5.19570313 5.02564453 4.64140625 4.61378906 4.0703125 4.18945312 C2.69298825 3.15306751 1.3437077 2.07961421 0 1 C0 0.67 0 0.34 0 0 Z " fill="#FE8212" transform="translate(861,136)"/>
<path d="M0 0 C3.40312738 1.05875074 6.01353231 2.00902154 9 4 C9 4.66 9 5.32 9 6 C5.9168649 4.80100302 2.93720508 3.52299523 0 2 C0 1.34 0 0.68 0 0 Z " fill="#FE7C19" transform="translate(838,121)"/>
<path d="M0 0 C0.66 0.33 1.32 0.66 2 1 C0.68 2.32 -0.64 3.64 -2 5 C-1.34 3.35 -0.68 1.7 0 0 Z " fill="#000000" transform="translate(891,863)"/>
<path d="M0 0 C1.65 0 3.3 0 5 0 C5 0.33 5 0.66 5 1 C3.35 1 1.7 1 0 1 C0 0.67 0 0.34 0 0 Z " fill="#000000" transform="translate(789,925)"/>
<path d="M0 0 C0 3 0 3 0 3 Z " fill="#EC4519" transform="translate(938,903)"/>
<path d="M0 0 C0.99 0.495 0.99 0.495 2 1 C1.67 1.66 1.34 2.32 1 3 C0.67 2.01 0.34 1.02 0 0 Z " fill="#000000" transform="translate(119,847)"/>
<path d="M0 0 C0.99 0.495 0.99 0.495 2 1 C1.67 1.66 1.34 2.32 1 3 C0.67 2.01 0.34 1.02 0 0 Z " fill="#000000" transform="translate(115,841)"/>
<path d="M0 0 C1 4 1 4 1 4 Z " fill="#3F0000" transform="translate(93,605)"/>
<path d="M0 0 C3 1 3 1 3 1 Z " fill="#000000" transform="translate(794,924)"/>
<path d="M0 0 C2 1 2 1 2 1 Z " fill="#000000" transform="translate(802,922)"/>
<path d="M0 0 C2 1 2 1 2 1 Z " fill="#000000" transform="translate(829,913)"/>
<path d="" fill="#000000" transform="translate(0,0)"/>
<path d="" fill="#000000" transform="translate(0,0)"/>
<path d="" fill="#000000" transform="translate(0,0)"/>
<path d="" fill="#000000" transform="translate(0,0)"/>
<path d="" fill="#000000" transform="translate(0,0)"/>
<path d="" fill="#000000" transform="translate(0,0)"/>
<path d="" fill="#000000" transform="translate(0,0)"/>
<path d="" fill="#000000" transform="translate(0,0)"/>
<path d="" fill="#000000" transform="translate(0,0)"/>
<path d="" fill="#000000" transform="translate(0,0)"/>
<path d="" fill="#000000" transform="translate(0,0)"/>
<path d="" fill="#000000" transform="translate(0,0)"/>
<path d="" fill="#000000" transform="translate(0,0)"/>
<path d="" fill="#000000" transform="translate(0,0)"/>
<path d="" fill="#000000" transform="translate(0,0)"/>
<path d="" fill="#000000" transform="translate(0,0)"/>
<path d="" fill="#000000" transform="translate(0,0)"/>
<path d="" fill="#000000" transform="translate(0,0)"/>
<path d="" fill="#000000" transform="translate(0,0)"/>
<path d="" fill="#000000" transform="translate(0,0)"/>
<path d="" fill="#000000" transform="translate(0,0)"/>
<path d="" fill="#000000" transform="translate(0,0)"/>
<path d="" fill="#000000" transform="translate(0,0)"/>
<path d="" fill="#000000" transform="translate(0,0)"/>
<path d="" fill="#000000" transform="translate(0,0)"/>
<path d="" fill="#000000" transform="translate(0,0)"/>
<path d="" fill="#000000" transform="translate(0,0)"/>
<path d="" fill="#000000" transform="translate(0,0)"/>
<path d="" fill="#000000" transform="translate(0,0)"/>
</svg>
