<?xml version="1.0" encoding="UTF-8"?>
<svg id="Ebene_2" data-name="Ebene 2" xmlns="http://www.w3.org/2000/svg" xmlns:xlink="http://www.w3.org/1999/xlink" viewBox="0 0 830.63 826.02">
  <defs>
    <style>
      .cls-1 {
        fill: #fff;
      }

      .cls-2 {
        fill: #f60;
      }

      .cls-3 {
        fill: url(#Unbenannter_Verlauf_343);
      }

      .cls-4 {
        fill: url(#Unbenannter_Verlauf_38);
      }
    </style>
    <linearGradient id="Unbenannter_Verlauf_343" data-name="Unbenannter Verlauf 343" x1="415.32" y1="0" x2="415.32" y2="826.02" gradientUnits="userSpaceOnUse">
      <stop offset="0" stop-color="#ff6602"/>
      <stop offset=".24" stop-color="#ff6901"/>
      <stop offset=".48" stop-color="#ff7501"/>
      <stop offset=".71" stop-color="#ff8901"/>
      <stop offset=".94" stop-color="#ffa400"/>
      <stop offset="1" stop-color="#ffad00"/>
    </linearGradient>
    <linearGradient id="Unbenannter_Verlauf_38" data-name="Unbenannter Verlauf 38" x1="779.44" y1="173.25" x2="144.79" y2="518.79" gradientUnits="userSpaceOnUse">
      <stop offset="0" stop-color="#fff"/>
      <stop offset=".4" stop-color="#fdfdfd"/>
      <stop offset=".54" stop-color="#f6f6f6"/>
      <stop offset=".64" stop-color="#eaeaea"/>
      <stop offset=".72" stop-color="#d9d9d9"/>
      <stop offset=".79" stop-color="#c3c3c3"/>
      <stop offset=".86" stop-color="#a8a8a8"/>
      <stop offset=".91" stop-color="#888"/>
      <stop offset=".93" stop-color="#7d7d7d"/>
    </linearGradient>
  </defs>
  <g id="Ebene_6" data-name="Ebene 6">
    <rect class="cls-3" width="830.63" height="826.02" rx="169.61" ry="169.61"/>
    <path class="cls-1" d="M412.8,55.22l-1.83,532.7v.17l-.68,196.32v.02h-.54c-.18,0-.37-.01-.56-.01-.31-.01-.62-.02-.92-.03-.19-.01-.38-.02-.57-.04l3.26-196.26h-7.13V55.22h8.97Z"/>
    <path class="cls-4" d="M770.31,164.28c-.97-3.95-1.8-6.11-3.6-8.33-2.08-2.55-6.92-4.96-10.12-5.69-18.67-4.3-94.57-22.1-169.51-44.71-35.15-10.6-69.49-23.74-98.21-35.59-19.23-7.94-35.03-16.08-49.12-22.83-6.47-3.1-11.01-4.75-16.99-5.73-2.15-.73-4.7-1.16-7.44-1.16-1.58,0-3.09.15-4.51.41-6.34.84-11.01,2.4-17.78,5.48-14.22,6.46-30.19,14.29-49.57,21.83-28.96,11.27-63.56,23.71-98.91,33.6-75.39,21.09-151.63,37.35-170.38,41.26-3.22.67-8.11,2.98-10.23,5.49-1.85,2.18-2.72,4.32-3.77,8.26-1.94,7.24,2.65,91.82,4.01,110.4.18,2.36.43,4.71.76,7.06l5.36,38.41c1.78,12.96,5.46,31.69,11.12,53.26,6.36,24.23,13.83,51.54,21.97,74.1,10.66,29.51,21,51.78,21,51.78,0,0,16.17,35.3,43.27,79.3,9.29,15.09,21.86,31.41,32.8,47.4,7.85,11.48,16.44,20.39,23.87,28.9,12.15,13.89,23.2,26.07,33.87,36.2,17.6,16.72,32.18,28.71,44.42,39.2,9.22,7.9,26.29,20.99,44.2,31.76,26.02,15.65,53.43,27.91,53.43,27.91,0,0,2.61,1.22,5.84,1.9.49.1,1.04.17,1.61.21.19.02.38.03.57.04.3.01.61.02.92.03.19.01.38.01.56.01.19,0,.37-.01.54-.02,4.11-.13,6.68-1.4,6.68-1.4,0,0,28.31-11.76,54.64-26.88,18.12-10.41,35.45-23.15,44.83-30.86,12.45-10.24,27.27-21.93,45.2-38.29,10.88-9.92,22.18-21.86,34.6-35.51,7.6-8.35,16.37-17.09,24.46-28.41,11.25-15.77,24.15-31.83,33.75-46.73,27.98-43.44,44.86-78.4,44.86-78.4,0,0,10.79-22.06,22.04-51.35,8.6-22.38,16.62-49.53,23.47-73.64,6.1-21.45,10.16-40.09,12.2-53.02l6.14-38.29c.38-2.34.68-4.69.9-7.05,1.73-18.54,8.04-103.01,6.25-110.3Z"/>
    <g>
      <path id="nose" class="cls-2" d="M363.48,542.93l25.67-31.97c19.59-24.39,42.53-4.92,43.39-4.34l35.47,23.91c.85.58.94,2.23.38,3.28l-39.41,74.3c-.56,1.05-1.63,1.29-2.4.52l-62.72-62.42c-.77-.77-1.08-2.41-.38-3.28h0Z"/>
      <path id="hair" d="M625.43,159.83c-25.43,23.12-73.25,39.94-89.01,41.6,10.96-12.49,2.86-31.95-19.05-37.84-11.94,20.06-54.71,40.3-80.08,41.02,14.44-11.49,9.98-27.77.59-36.75-36.82,39.24-259.56,32.52-284.32,178.79,22.32,3.28,33.67,3.16,51.57,0,.53-7.83,5.9-6.9,8.31-14.59,32.55-71.42,208.5,94.66,347-56.73,49.13,1.3,73.16,67.45,72.62,71.64,25.11-.5,9.9-.29,36.35-.39-1.99-22.61-2.1-85.05-64.92-110.03l.35-.02c21.33-19.42,40.58-51.56,20.59-76.69h0Z"/>
      <path id="glasses" d="M288.4,372.58c-46.25,0-95.96,7.11-137.47,15.31v31.34c7.16,5.91,21.82,9.58,21.87,30.38.13,81.98,34.63,93.96,100.43,94.35,88.39,0,100.34-19.87,115.1-88.87,3.27-15.32,11.18-24.6,24.47-24.6s21.24,9.31,24.51,24.6c14.8,69,26.74,88.87,115.14,88.87,65.83-.39,100.34-12.37,100.47-94.35.05-20.8,14.71-24.46,21.87-30.38v-31.34c-41.53-8.2-91.27-15.31-137.52-15.31-70.63,0-76.94,20.03-124.43,19.79-47.49.24-53.72-19.79-124.43-19.79h0ZM288.4,394c42.01,0,67.81,9.43,76.65,22.01,4.69,6.71,5.41,17.92,2.09,33.35-12.22,57.03-15.01,73.74-93.78,73.18-61.96-.36-78.78-12.21-78.78-73.39,0-32.48,0-55.15,93.82-55.15h0ZM537.26,394c17,0,30.04.97,41.43,2.38.6-.01,1.2.07,1.79-.04,1.37-.03,1.31-.12,2.64.13.71.13,1.38.44,2.09.54,8.04,1.14-2.87-.75,5.12.71,1.55.6,3.12.29,4.77.84.6.2,1.05.67,1.58,1,33.73,8.55,34.4,26.49,34.4,49.58,0,61.18-16.81,73.02-78.78,73.39-78.75.56-81.54-16.15-93.78-73.18-3.3-15.42-2.58-26.66,2.13-33.35,8.82-12.57,34.59-22.01,76.6-22.01h0Z"/>
      <path id="eyeLeft" d="M326.43,455.51c0,18.15-14.57,32.86-32.54,32.86h0c-17.97,0-32.54-14.71-32.54-32.86,0-18.15,14.57-32.86,32.54-32.86,17.97,0,32.54,14.71,32.54,32.86h0Z"/>
      <path id="eyeRight" d="M562.71,453.53c0,18.15-14.57,32.86-32.54,32.86s-32.54-14.71-32.54-32.86,14.57-32.86,32.54-32.86,32.54,14.71,32.54,32.86Z"/>
    </g>
  </g>
</svg>